<svg xmlns="http://www.w3.org/2000/svg" viewBox="0 0 128 128" role="img" aria-hidden="true" focusable="false">
  <circle cx="34" cy="48" r="7" fill="#A79D8F"/>
  <path
    fill="#8E4D2F"
    d="M26 77v-8l4-3 1-11 1-7 8-4 3-4 4-11 1-4 3-3 16-4 11-2h8l7 3 11 9 10 8 6 2 2 4 4 12 4 8 4 3 3 6 2 10H80l-1-7-2-2-3-8-3-8-4-3h-4l-2 7-3 7-6 5-2 2-2 11H26Z"
  />
  <path
    fill="#F6F1E8"
    d="M58 77l2-10 5-4 3-8 4-1 3 1 4 5 6 12 3 1 2 4 1 10h-7l-1-8-2-2-4-8-4-7-2-2h-2l1 1 5 8 4 10-2 2-2-1-4-9-5-8-3-3h-3l-2 7-3 7-6 5-2 2-2 9h-8Z"
  />
</svg>
